<svg width="1515" height="870" viewBox="0 0 1515 870" fill="none" xmlns="http://www.w3.org/2000/svg">
<g filter="url(#filter0_d_7_60)">
<rect x="654.524" y="363.651" width="5.9" height="5.90454" transform="rotate(-90 654.524 363.651)" fill="#D9D9D9"/>
<rect x="671.542" y="346.633" width="5.9" height="5.90454" transform="rotate(-90 671.542 346.633)" fill="#D9D9D9"/>
<rect x="688.482" y="363.651" width="5.9" height="5.90454" transform="rotate(-90 688.482 363.651)" fill="#D9D9D9"/>
<rect x="671.542" y="380.59" width="5.9" height="5.90454" transform="rotate(-90 671.542 380.59)" fill="#D9D9D9"/>
<rect x="1471" y="463.69" width="5.9" height="5.90454" transform="rotate(-90 1471 463.69)" fill="#D9D9D9"/>
<rect x="1488.02" y="446.672" width="5.9" height="5.90454" transform="rotate(-90 1488.02 446.672)" fill="#D9D9D9"/>
<rect x="1504.96" y="463.69" width="5.9" height="5.90454" transform="rotate(-90 1504.96 463.69)" fill="#D9D9D9"/>
<rect x="1488.02" y="480.629" width="5.9" height="5.90454" transform="rotate(-90 1488.02 480.629)" fill="#D9D9D9"/>
<rect x="127" y="22.9176" width="5.9" height="5.90454" transform="rotate(-90 127 22.9176)" fill="#D9D9D9"/>
<rect x="144.018" y="5.9" width="5.9" height="5.90454" transform="rotate(-90 144.018 5.9)" fill="#D9D9D9"/>
<rect x="160.957" y="22.9176" width="5.9" height="5.90454" transform="rotate(-90 160.957 22.9176)" fill="#D9D9D9"/>
<rect x="144.018" y="39.8572" width="5.9" height="5.90454" transform="rotate(-90 144.018 39.8572)" fill="#D9D9D9"/>
<rect x="1371.96" y="842.875" width="5.9" height="5.90454" transform="rotate(-90 1371.96 842.875)" fill="#D9D9D9"/>
<rect x="1388.97" y="825.857" width="5.9" height="5.90454" transform="rotate(-90 1388.97 825.857)" fill="#D9D9D9"/>
<rect x="1405.91" y="842.875" width="5.9" height="5.90454" transform="rotate(-90 1405.91 842.875)" fill="#D9D9D9"/>
<rect x="1388.97" y="859.814" width="5.9" height="5.90454" transform="rotate(-90 1388.97 859.814)" fill="#D9D9D9"/>
<rect x="4" y="808.918" width="5.9" height="5.90454" transform="rotate(-90 4 808.918)" fill="#D9D9D9"/>
<rect x="21.0176" y="791.9" width="5.9" height="5.90454" transform="rotate(-90 21.0176 791.9)" fill="#D9D9D9"/>
<rect x="37.9572" y="808.918" width="5.9" height="5.90454" transform="rotate(-90 37.9572 808.918)" fill="#D9D9D9"/>
<rect x="21.0176" y="825.857" width="5.9" height="5.90454" transform="rotate(-90 21.0176 825.857)" fill="#D9D9D9"/>
<rect x="1338" y="133.918" width="5.9" height="5.90454" transform="rotate(-90 1338 133.918)" fill="#D9D9D9"/>
<rect x="1355.02" y="116.9" width="5.9" height="5.90454" transform="rotate(-90 1355.02 116.9)" fill="#D9D9D9"/>
<rect x="1371.96" y="133.918" width="5.9" height="5.90454" transform="rotate(-90 1371.96 133.918)" fill="#D9D9D9"/>
<rect x="1355.02" y="150.857" width="5.9" height="5.90454" transform="rotate(-90 1355.02 150.857)" fill="#D9D9D9"/>
</g>
<defs>
<filter id="filter0_d_7_60" x="0" y="0" width="1514.86" height="869.314" filterUnits="userSpaceOnUse" color-interpolation-filters="sRGB">
<feFlood flood-opacity="0" result="BackgroundImageFix"/>
<feColorMatrix in="SourceAlpha" type="matrix" values="0 0 0 0 0 0 0 0 0 0 0 0 0 0 0 0 0 0 127 0" result="hardAlpha"/>
<feOffset dy="5.5"/>
<feGaussianBlur stdDeviation="2"/>
<feComposite in2="hardAlpha" operator="out"/>
<feColorMatrix type="matrix" values="0 0 0 0 0 0 0 0 0 0 0 0 0 0 0 0 0 0 0.35 0"/>
<feBlend mode="normal" in2="BackgroundImageFix" result="effect1_dropShadow_7_60"/>
<feBlend mode="normal" in="SourceGraphic" in2="effect1_dropShadow_7_60" result="shape"/>
</filter>
</defs>
</svg>
