<svg width="1728" height="1110" viewBox="0 0 1728 1110" fill="none" xmlns="http://www.w3.org/2000/svg">
<g filter="url(#filter0_d_7_216)">
<rect x="452.253" y="448.1" width="5.77518" height="11.0253" fill="#D9D9D9"/>
<rect x="452.253" y="477.034" width="5.77518" height="11.0253" fill="#D9D9D9"/>
<rect width="5.77518" height="11.9004" transform="matrix(0 -1 -1 0 447.12 470.967)" fill="#D9D9D9"/>
<rect width="5.77518" height="11.9004" transform="matrix(0 -1 -1 0 475.704 470.967)" fill="#D9D9D9"/>
<rect width="5.77518" height="5.9502" transform="matrix(0 -1 -1 0 458.029 470.967)" fill="#D9D9D9"/>
<rect x="287.272" y="748.447" width="5.77518" height="11.0253" fill="#D9D9D9"/>
<rect x="287.272" y="777.381" width="5.77518" height="11.0253" fill="#D9D9D9"/>
<rect width="5.77518" height="11.9004" transform="matrix(0 -1 -1 0 282.138 771.314)" fill="#D9D9D9"/>
<rect width="5.77518" height="11.9004" transform="matrix(0 -1 -1 0 310.722 771.314)" fill="#D9D9D9"/>
<rect width="5.77518" height="5.9502" transform="matrix(0 -1 -1 0 293.047 771.314)" fill="#D9D9D9"/>
<rect x="1704.55" y="747.447" width="5.77518" height="11.0253" fill="#D9D9D9"/>
<rect x="1704.55" y="776.381" width="5.77518" height="11.0253" fill="#D9D9D9"/>
<rect width="5.77518" height="11.9004" transform="matrix(0 -1 -1 0 1699.42 770.314)" fill="#D9D9D9"/>
<rect width="5.77518" height="11.9004" transform="matrix(0 -1 -1 0 1728 770.314)" fill="#D9D9D9"/>
<rect width="5.77518" height="5.9502" transform="matrix(0 -1 -1 0 1710.32 770.314)" fill="#D9D9D9"/>
<rect x="423.669" y="1032.25" width="5.77518" height="11.0253" fill="#D9D9D9"/>
<rect x="423.669" y="1061.18" width="5.77518" height="11.0253" fill="#D9D9D9"/>
<rect width="5.77518" height="11.9004" transform="matrix(0 -1 -1 0 418.536 1055.11)" fill="#D9D9D9"/>
<rect width="5.77518" height="11.9004" transform="matrix(0 -1 -1 0 447.12 1055.11)" fill="#D9D9D9"/>
<rect width="5.77518" height="5.9502" transform="matrix(0 -1 -1 0 429.444 1055.11)" fill="#D9D9D9"/>
<rect x="1278.57" y="499.087" width="5.77518" height="11.0253" fill="#D9D9D9"/>
<rect x="1278.57" y="528.021" width="5.77518" height="11.0253" fill="#D9D9D9"/>
<rect width="5.77518" height="11.9004" transform="matrix(0 -1 -1 0 1273.44 521.954)" fill="#D9D9D9"/>
<rect width="5.77518" height="11.9004" transform="matrix(0 -1 -1 0 1302.02 521.954)" fill="#D9D9D9"/>
<rect width="5.77518" height="5.9502" transform="matrix(0 -1 -1 0 1284.35 521.954)" fill="#D9D9D9"/>
<rect x="784.883" y="84.437" width="5.77518" height="11.0253" fill="#D9D9D9"/>
<rect x="784.883" y="113.371" width="5.77518" height="11.0253" fill="#D9D9D9"/>
<rect width="5.77518" height="11.9004" transform="matrix(0 -1 -1 0 779.749 107.304)" fill="#D9D9D9"/>
<rect width="5.77518" height="11.9004" transform="matrix(0 -1 -1 0 808.333 107.304)" fill="#D9D9D9"/>
<rect width="5.77518" height="5.9502" transform="matrix(0 -1 -1 0 790.658 107.304)" fill="#D9D9D9"/>
<rect x="130.572" y="211.274" width="5.77518" height="11.0253" fill="#D9D9D9"/>
<rect x="130.572" y="240.209" width="5.77518" height="11.0253" fill="#D9D9D9"/>
<rect width="5.77518" height="11.9004" transform="matrix(0 -1 -1 0 125.439 234.142)" fill="#D9D9D9"/>
<rect width="5.77518" height="11.9004" transform="matrix(0 -1 -1 0 154.023 234.142)" fill="#D9D9D9"/>
<rect width="5.77518" height="5.9502" transform="matrix(0 -1 -1 0 136.347 234.142)" fill="#D9D9D9"/>
<rect x="963.696" y="844.336" width="5.77518" height="11.0253" fill="#D9D9D9"/>
<rect x="963.696" y="873.271" width="5.77518" height="11.0253" fill="#D9D9D9"/>
<rect width="5.77518" height="11.9004" transform="matrix(0 -1 -1 0 958.563 867.204)" fill="#D9D9D9"/>
<rect width="5.77518" height="11.9004" transform="matrix(0 -1 -1 0 987.147 867.204)" fill="#D9D9D9"/>
<rect width="5.77518" height="5.9502" transform="matrix(0 -1 -1 0 969.471 867.204)" fill="#D9D9D9"/>
<rect x="1123.18" y="199.387" width="5.77518" height="11.0253" fill="#D9D9D9"/>
<rect x="1123.18" y="228.321" width="5.77518" height="11.0253" fill="#D9D9D9"/>
<rect width="5.77518" height="11.9004" transform="matrix(0 -1 -1 0 1118.05 222.254)" fill="#D9D9D9"/>
<rect width="5.77518" height="11.9004" transform="matrix(0 -1 -1 0 1146.63 222.254)" fill="#D9D9D9"/>
<rect width="5.77518" height="5.9502" transform="matrix(0 -1 -1 0 1128.96 222.254)" fill="#D9D9D9"/>
<rect x="34.2593" y="23.4668" width="5.77518" height="11.0253" fill="#D9D9D9"/>
<rect x="34.2593" y="52.4012" width="5.77518" height="11.0253" fill="#D9D9D9"/>
<rect width="5.77518" height="11.9004" transform="matrix(0 -1 -1 0 29.1259 46.3342)" fill="#D9D9D9"/>
<rect width="5.77518" height="11.9004" transform="matrix(0 -1 -1 0 57.7101 46.3342)" fill="#D9D9D9"/>
<rect width="5.77518" height="5.9502" transform="matrix(0 -1 -1 0 40.0345 46.3342)" fill="#D9D9D9"/>
</g>
<defs>
<filter id="filter0_d_7_216" x="-33.7622" y="-16.5332" width="1765.76" height="1135.58" filterUnits="userSpaceOnUse" color-interpolation-filters="sRGB">
<feFlood flood-opacity="0" result="BackgroundImageFix"/>
<feColorMatrix in="SourceAlpha" type="matrix" values="0 0 0 0 0 0 0 0 0 0 0 0 0 0 0 0 0 0 127 0" result="hardAlpha"/>
<feOffset dy="5.5"/>
<feGaussianBlur stdDeviation="2"/>
<feComposite in2="hardAlpha" operator="out"/>
<feColorMatrix type="matrix" values="0 0 0 0 0 0 0 0 0 0 0 0 0 0 0 0 0 0 0.35 0"/>
<feBlend mode="normal" in2="BackgroundImageFix" result="effect1_dropShadow_7_216"/>
<feBlend mode="normal" in="SourceGraphic" in2="effect1_dropShadow_7_216" result="shape"/>
</filter>
</defs>
</svg>
