<svg width="1728" height="1117" viewBox="0 0 1728 1117" fill="none" xmlns="http://www.w3.org/2000/svg">
<g clip-path="url(#clip0_1_2)">
<rect width="1728" height="1117" fill="#003466"/>
<g filter="url(#filter0_d_1_2)">
<rect x="452.253" y="448.1" width="5.77518" height="11.0253" fill="#D9D9D9"/>
<rect x="452.253" y="477.034" width="5.77518" height="11.0253" fill="#D9D9D9"/>
<rect width="5.77518" height="11.9004" transform="matrix(0 -1 -1 0 447.12 470.967)" fill="#D9D9D9"/>
<rect width="5.77518" height="11.9004" transform="matrix(0 -1 -1 0 475.704 470.967)" fill="#D9D9D9"/>
<rect width="5.77518" height="5.9502" transform="matrix(0 -1 -1 0 458.029 470.967)" fill="#D9D9D9"/>
<rect x="287.272" y="748.447" width="5.77518" height="11.0253" fill="#D9D9D9"/>
<rect x="287.272" y="777.381" width="5.77518" height="11.0253" fill="#D9D9D9"/>
<rect width="5.77518" height="11.9004" transform="matrix(0 -1 -1 0 282.138 771.314)" fill="#D9D9D9"/>
<rect width="5.77518" height="11.9004" transform="matrix(0 -1 -1 0 310.722 771.314)" fill="#D9D9D9"/>
<rect width="5.77518" height="5.9502" transform="matrix(0 -1 -1 0 293.047 771.314)" fill="#D9D9D9"/>
<rect x="1704.55" y="747.447" width="5.77518" height="11.0253" fill="#D9D9D9"/>
<rect x="1704.55" y="776.381" width="5.77518" height="11.0253" fill="#D9D9D9"/>
<rect width="5.77518" height="11.9004" transform="matrix(0 -1 -1 0 1699.42 770.314)" fill="#D9D9D9"/>
<rect width="5.77518" height="11.9004" transform="matrix(0 -1 -1 0 1728 770.314)" fill="#D9D9D9"/>
<rect width="5.77518" height="5.9502" transform="matrix(0 -1 -1 0 1710.32 770.314)" fill="#D9D9D9"/>
<rect x="423.669" y="1032.25" width="5.77518" height="11.0253" fill="#D9D9D9"/>
<rect x="423.669" y="1061.18" width="5.77518" height="11.0253" fill="#D9D9D9"/>
<rect width="5.77518" height="11.9004" transform="matrix(0 -1 -1 0 418.536 1055.11)" fill="#D9D9D9"/>
<rect width="5.77518" height="11.9004" transform="matrix(0 -1 -1 0 447.12 1055.11)" fill="#D9D9D9"/>
<rect width="5.77518" height="5.9502" transform="matrix(0 -1 -1 0 429.444 1055.11)" fill="#D9D9D9"/>
<rect x="1278.57" y="499.087" width="5.77518" height="11.0253" fill="#D9D9D9"/>
<rect x="1278.57" y="528.021" width="5.77518" height="11.0253" fill="#D9D9D9"/>
<rect width="5.77518" height="11.9004" transform="matrix(0 -1 -1 0 1273.44 521.954)" fill="#D9D9D9"/>
<rect width="5.77518" height="11.9004" transform="matrix(0 -1 -1 0 1302.02 521.954)" fill="#D9D9D9"/>
<rect width="5.77518" height="5.9502" transform="matrix(0 -1 -1 0 1284.35 521.954)" fill="#D9D9D9"/>
<rect x="784.883" y="84.437" width="5.77518" height="11.0253" fill="#D9D9D9"/>
<rect x="784.883" y="113.371" width="5.77518" height="11.0253" fill="#D9D9D9"/>
<rect width="5.77518" height="11.9004" transform="matrix(0 -1 -1 0 779.749 107.304)" fill="#D9D9D9"/>
<rect width="5.77518" height="11.9004" transform="matrix(0 -1 -1 0 808.333 107.304)" fill="#D9D9D9"/>
<rect width="5.77518" height="5.9502" transform="matrix(0 -1 -1 0 790.658 107.304)" fill="#D9D9D9"/>
<rect x="130.572" y="211.274" width="5.77518" height="11.0253" fill="#D9D9D9"/>
<rect x="130.572" y="240.209" width="5.77518" height="11.0253" fill="#D9D9D9"/>
<rect width="5.77518" height="11.9004" transform="matrix(0 -1 -1 0 125.439 234.142)" fill="#D9D9D9"/>
<rect width="5.77518" height="11.9004" transform="matrix(0 -1 -1 0 154.023 234.142)" fill="#D9D9D9"/>
<rect width="5.77518" height="5.9502" transform="matrix(0 -1 -1 0 136.347 234.142)" fill="#D9D9D9"/>
<rect x="963.696" y="844.336" width="5.77518" height="11.0253" fill="#D9D9D9"/>
<rect x="963.696" y="873.271" width="5.77518" height="11.0253" fill="#D9D9D9"/>
<rect width="5.77518" height="11.9004" transform="matrix(0 -1 -1 0 958.563 867.204)" fill="#D9D9D9"/>
<rect width="5.77518" height="11.9004" transform="matrix(0 -1 -1 0 987.147 867.204)" fill="#D9D9D9"/>
<rect width="5.77518" height="5.9502" transform="matrix(0 -1 -1 0 969.471 867.204)" fill="#D9D9D9"/>
<rect x="1123.18" y="199.387" width="5.77518" height="11.0253" fill="#D9D9D9"/>
<rect x="1123.18" y="228.321" width="5.77518" height="11.0253" fill="#D9D9D9"/>
<rect width="5.77518" height="11.9004" transform="matrix(0 -1 -1 0 1118.05 222.254)" fill="#D9D9D9"/>
<rect width="5.77518" height="11.9004" transform="matrix(0 -1 -1 0 1146.63 222.254)" fill="#D9D9D9"/>
<rect width="5.77518" height="5.9502" transform="matrix(0 -1 -1 0 1128.96 222.254)" fill="#D9D9D9"/>
<rect x="34.2593" y="23.4668" width="5.77518" height="11.0253" fill="#D9D9D9"/>
<rect x="34.2593" y="52.4012" width="5.77518" height="11.0253" fill="#D9D9D9"/>
<rect width="5.77518" height="11.9004" transform="matrix(0 -1 -1 0 29.1259 46.3342)" fill="#D9D9D9"/>
<rect width="5.77518" height="11.9004" transform="matrix(0 -1 -1 0 57.7101 46.3342)" fill="#D9D9D9"/>
<rect width="5.77518" height="5.9502" transform="matrix(0 -1 -1 0 40.0345 46.3342)" fill="#D9D9D9"/>
<rect x="432.709" y="18.966" width="4.89529" height="6.23956" fill="#D9D9D9"/>
<rect x="432.709" y="30.2071" width="4.89529" height="6.23956" fill="#D9D9D9"/>
<rect x="426.469" y="30.1009" width="4.89529" height="6.23956" transform="rotate(-90 426.469 30.1009)" fill="#D9D9D9"/>
<rect x="437.604" y="30.2071" width="4.89529" height="6.23956" transform="rotate(-90 437.604 30.2071)" fill="#D9D9D9"/>
</g>
<g filter="url(#filter1_d_1_2)">
<rect x="796.524" y="481.651" width="5.9" height="5.90454" transform="rotate(-90 796.524 481.651)" fill="#D9D9D9"/>
<rect x="813.542" y="464.633" width="5.9" height="5.90454" transform="rotate(-90 813.542 464.633)" fill="#D9D9D9"/>
<rect x="830.482" y="481.651" width="5.9" height="5.90454" transform="rotate(-90 830.482 481.651)" fill="#D9D9D9"/>
<rect x="813.542" y="498.59" width="5.9" height="5.90454" transform="rotate(-90 813.542 498.59)" fill="#D9D9D9"/>
<rect x="1613" y="581.69" width="5.9" height="5.90454" transform="rotate(-90 1613 581.69)" fill="#D9D9D9"/>
<rect x="1630.02" y="564.672" width="5.9" height="5.90454" transform="rotate(-90 1630.02 564.672)" fill="#D9D9D9"/>
<rect x="1646.96" y="581.69" width="5.9" height="5.90454" transform="rotate(-90 1646.96 581.69)" fill="#D9D9D9"/>
<rect x="1630.02" y="598.629" width="5.9" height="5.90454" transform="rotate(-90 1630.02 598.629)" fill="#D9D9D9"/>
<rect x="269" y="140.918" width="5.9" height="5.90454" transform="rotate(-90 269 140.918)" fill="#D9D9D9"/>
<rect x="286.018" y="123.9" width="5.9" height="5.90454" transform="rotate(-90 286.018 123.9)" fill="#D9D9D9"/>
<rect x="302.957" y="140.918" width="5.9" height="5.90454" transform="rotate(-90 302.957 140.918)" fill="#D9D9D9"/>
<rect x="286.018" y="157.857" width="5.9" height="5.90454" transform="rotate(-90 286.018 157.857)" fill="#D9D9D9"/>
<rect x="1513.96" y="960.875" width="5.9" height="5.90454" transform="rotate(-90 1513.96 960.875)" fill="#D9D9D9"/>
<rect x="1530.97" y="943.857" width="5.9" height="5.90454" transform="rotate(-90 1530.97 943.857)" fill="#D9D9D9"/>
<rect x="1547.91" y="960.875" width="5.9" height="5.90454" transform="rotate(-90 1547.91 960.875)" fill="#D9D9D9"/>
<rect x="1530.97" y="977.814" width="5.9" height="5.90454" transform="rotate(-90 1530.97 977.814)" fill="#D9D9D9"/>
<rect x="146" y="926.918" width="5.9" height="5.90454" transform="rotate(-90 146 926.918)" fill="#D9D9D9"/>
<rect x="163.018" y="909.9" width="5.9" height="5.90454" transform="rotate(-90 163.018 909.9)" fill="#D9D9D9"/>
<rect x="179.957" y="926.918" width="5.9" height="5.90454" transform="rotate(-90 179.957 926.918)" fill="#D9D9D9"/>
<rect x="163.018" y="943.857" width="5.9" height="5.90454" transform="rotate(-90 163.018 943.857)" fill="#D9D9D9"/>
<rect x="1480" y="251.918" width="5.9" height="5.90454" transform="rotate(-90 1480 251.918)" fill="#D9D9D9"/>
<rect x="1497.02" y="234.9" width="5.9" height="5.90454" transform="rotate(-90 1497.02 234.9)" fill="#D9D9D9"/>
<rect x="1513.96" y="251.918" width="5.9" height="5.90454" transform="rotate(-90 1513.96 251.918)" fill="#D9D9D9"/>
<rect x="1497.02" y="268.857" width="5.9" height="5.90454" transform="rotate(-90 1497.02 268.857)" fill="#D9D9D9"/>
</g>
<g filter="url(#filter2_d_1_2)">
<rect x="595.971" y="657.9" width="5.9" height="5.90454" transform="rotate(-90 595.971 657.9)" fill="#D9D9D9"/>
<rect x="613.035" y="674.879" width="5.9" height="5.90454" transform="rotate(-90 613.035 674.879)" fill="#D9D9D9"/>
<rect x="579" y="674.879" width="5.9" height="5.90454" transform="rotate(-90 579 674.879)" fill="#D9D9D9"/>
<rect x="595.971" y="691.84" width="5.9" height="5.90454" transform="rotate(-90 595.971 691.84)" fill="#D9D9D9"/>
<rect x="607.987" y="685.94" width="5.00181" height="5.0481" transform="rotate(-90 607.987 685.94)" fill="#D9D9D9"/>
<rect x="584.905" y="685.94" width="5.00181" height="5.0481" transform="rotate(-90 584.905 685.94)" fill="#D9D9D9"/>
<rect x="584.905" y="662.902" width="5.00181" height="5.0481" transform="rotate(-90 584.905 662.902)" fill="#D9D9D9"/>
<rect x="607.987" y="662.902" width="5.00181" height="5.0481" transform="rotate(-90 607.987 662.902)" fill="#D9D9D9"/>
<rect x="823.971" y="266.066" width="5.9" height="5.90454" transform="rotate(-90 823.971 266.066)" fill="#D9D9D9"/>
<rect x="841.035" y="283.045" width="5.9" height="5.90454" transform="rotate(-90 841.035 283.045)" fill="#D9D9D9"/>
<rect x="807" y="283.045" width="5.9" height="5.90454" transform="rotate(-90 807 283.045)" fill="#D9D9D9"/>
<rect x="823.971" y="300.005" width="5.9" height="5.90454" transform="rotate(-90 823.971 300.005)" fill="#D9D9D9"/>
<rect x="835.987" y="294.105" width="5.00181" height="5.0481" transform="rotate(-90 835.987 294.105)" fill="#D9D9D9"/>
<rect x="812.905" y="294.105" width="5.00181" height="5.0481" transform="rotate(-90 812.905 294.105)" fill="#D9D9D9"/>
<rect x="812.905" y="271.068" width="5.00181" height="5.0481" transform="rotate(-90 812.905 271.068)" fill="#D9D9D9"/>
<rect x="835.987" y="271.068" width="5.00181" height="5.0481" transform="rotate(-90 835.987 271.068)" fill="#D9D9D9"/>
<rect x="1687.36" y="257.665" width="5.9" height="5.90454" transform="rotate(-90 1687.36 257.665)" fill="#D9D9D9"/>
<rect x="1704.42" y="274.644" width="5.9" height="5.90454" transform="rotate(-90 1704.42 274.644)" fill="#D9D9D9"/>
<rect x="1670.38" y="274.644" width="5.9" height="5.90454" transform="rotate(-90 1670.38 274.644)" fill="#D9D9D9"/>
<rect x="1687.36" y="291.604" width="5.9" height="5.90454" transform="rotate(-90 1687.36 291.604)" fill="#D9D9D9"/>
<rect x="1699.37" y="285.704" width="5.00181" height="5.0481" transform="rotate(-90 1699.37 285.704)" fill="#D9D9D9"/>
<rect x="1676.29" y="285.704" width="5.00181" height="5.0481" transform="rotate(-90 1676.29 285.704)" fill="#D9D9D9"/>
<rect x="1676.29" y="262.667" width="5.00181" height="5.0481" transform="rotate(-90 1676.29 262.667)" fill="#D9D9D9"/>
<rect x="1699.37" y="262.667" width="5.00181" height="5.0481" transform="rotate(-90 1699.37 262.667)" fill="#D9D9D9"/>
<rect x="706.296" y="1055.07" width="5.9" height="5.90454" transform="rotate(-90 706.296 1055.07)" fill="#D9D9D9"/>
<rect x="723.36" y="1072.05" width="5.9" height="5.90454" transform="rotate(-90 723.36 1072.05)" fill="#D9D9D9"/>
<rect x="689.324" y="1072.05" width="5.9" height="5.90454" transform="rotate(-90 689.324 1072.05)" fill="#D9D9D9"/>
<rect x="706.296" y="1089.01" width="5.9" height="5.90454" transform="rotate(-90 706.296 1089.01)" fill="#D9D9D9"/>
<rect x="718.312" y="1083.11" width="5.00181" height="5.0481" transform="rotate(-90 718.312 1083.11)" fill="#D9D9D9"/>
<rect x="695.229" y="1083.11" width="5.00181" height="5.0481" transform="rotate(-90 695.229 1083.11)" fill="#D9D9D9"/>
<rect x="695.229" y="1060.07" width="5.00181" height="5.0481" transform="rotate(-90 695.229 1060.07)" fill="#D9D9D9"/>
<rect x="718.312" y="1060.07" width="5.00181" height="5.0481" transform="rotate(-90 718.312 1060.07)" fill="#D9D9D9"/>
<rect x="1157.36" y="55.9" width="5.9" height="5.90454" transform="rotate(-90 1157.36 55.9)" fill="#D9D9D9"/>
<rect x="1174.43" y="72.8793" width="5.9" height="5.90454" transform="rotate(-90 1174.43 72.8793)" fill="#D9D9D9"/>
<rect x="1140.39" y="72.8793" width="5.9" height="5.90454" transform="rotate(-90 1140.39 72.8793)" fill="#D9D9D9"/>
<rect x="1157.36" y="89.8395" width="5.9" height="5.90454" transform="rotate(-90 1157.36 89.8395)" fill="#D9D9D9"/>
<rect x="1169.38" y="83.9395" width="5.00181" height="5.0481" transform="rotate(-90 1169.38 83.9395)" fill="#D9D9D9"/>
<rect x="1146.29" y="83.9395" width="5.00181" height="5.0481" transform="rotate(-90 1146.29 83.9395)" fill="#D9D9D9"/>
<rect x="1146.29" y="60.9018" width="5.00181" height="5.0481" transform="rotate(-90 1146.29 60.9018)" fill="#D9D9D9"/>
<rect x="1169.38" y="60.9018" width="5.00181" height="5.0481" transform="rotate(-90 1169.38 60.9018)" fill="#D9D9D9"/>
<rect x="154.296" y="436.639" width="5.9" height="5.90454" transform="rotate(-90 154.296 436.639)" fill="#D9D9D9"/>
<rect x="171.36" y="453.618" width="5.9" height="5.90454" transform="rotate(-90 171.36 453.618)" fill="#D9D9D9"/>
<rect x="137.324" y="453.618" width="5.9" height="5.90454" transform="rotate(-90 137.324 453.618)" fill="#D9D9D9"/>
<rect x="154.296" y="470.578" width="5.9" height="5.90454" transform="rotate(-90 154.296 470.578)" fill="#D9D9D9"/>
<rect x="166.312" y="464.678" width="5.00181" height="5.0481" transform="rotate(-90 166.312 464.678)" fill="#D9D9D9"/>
<rect x="143.229" y="464.678" width="5.00181" height="5.0481" transform="rotate(-90 143.229 464.678)" fill="#D9D9D9"/>
<rect x="143.229" y="441.641" width="5.00181" height="5.0481" transform="rotate(-90 143.229 441.641)" fill="#D9D9D9"/>
<rect x="166.312" y="441.641" width="5.00181" height="5.0481" transform="rotate(-90 166.312 441.641)" fill="#D9D9D9"/>
<rect x="1143.3" y="781.906" width="5.9" height="5.90454" transform="rotate(-90 1143.3 781.906)" fill="#D9D9D9"/>
<rect x="1160.36" y="798.885" width="5.9" height="5.90454" transform="rotate(-90 1160.36 798.885)" fill="#D9D9D9"/>
<rect x="1126.32" y="798.885" width="5.9" height="5.90454" transform="rotate(-90 1126.32 798.885)" fill="#D9D9D9"/>
<rect x="1143.3" y="815.845" width="5.9" height="5.90454" transform="rotate(-90 1143.3 815.845)" fill="#D9D9D9"/>
<rect x="1155.31" y="809.945" width="5.00181" height="5.0481" transform="rotate(-90 1155.31 809.945)" fill="#D9D9D9"/>
<rect x="1132.23" y="809.945" width="5.00181" height="5.0481" transform="rotate(-90 1132.23 809.945)" fill="#D9D9D9"/>
<rect x="1132.23" y="786.908" width="5.00181" height="5.0481" transform="rotate(-90 1132.23 786.908)" fill="#D9D9D9"/>
<rect x="1155.31" y="786.908" width="5.00181" height="5.0481" transform="rotate(-90 1155.31 786.908)" fill="#D9D9D9"/>
<rect x="42.356" y="1048.67" width="5.9" height="5.90454" transform="rotate(-90 42.356 1048.67)" fill="#D9D9D9"/>
<rect x="59.4199" y="1065.64" width="5.9" height="5.90454" transform="rotate(-90 59.4199 1065.64)" fill="#D9D9D9"/>
<rect x="25.3845" y="1065.64" width="5.9" height="5.90454" transform="rotate(-90 25.3845 1065.64)" fill="#D9D9D9"/>
<rect x="42.356" y="1082.6" width="5.9" height="5.90454" transform="rotate(-90 42.356 1082.6)" fill="#D9D9D9"/>
<rect x="54.3718" y="1076.7" width="5.00181" height="5.0481" transform="rotate(-90 54.3718 1076.7)" fill="#D9D9D9"/>
<rect x="31.2891" y="1076.7" width="5.00181" height="5.0481" transform="rotate(-90 31.2891 1076.7)" fill="#D9D9D9"/>
<rect x="31.2891" y="1053.67" width="5.00181" height="5.0481" transform="rotate(-90 31.2891 1053.67)" fill="#D9D9D9"/>
<rect x="54.3718" y="1053.67" width="5.00181" height="5.0481" transform="rotate(-90 54.3718 1053.67)" fill="#D9D9D9"/>
<rect x="1290.03" y="1035" width="5.77518" height="11.0253" fill="#D9D9D9"/>
<rect x="1290.03" y="1063.93" width="5.77518" height="11.0253" fill="#D9D9D9"/>
<rect width="5.77518" height="11.9004" transform="matrix(0 -1 -1 0 1284.9 1057.87)" fill="#D9D9D9"/>
<rect width="5.77518" height="11.9004" transform="matrix(0 -1 -1 0 1313.48 1057.87)" fill="#D9D9D9"/>
<rect width="5.77518" height="5.9502" transform="matrix(0 -1 -1 0 1295.81 1057.87)" fill="#D9D9D9"/>
<rect x="63.1354" y="581" width="4.89529" height="6.23956" fill="#D9D9D9"/>
<rect x="63.1354" y="592.241" width="4.89529" height="6.23956" fill="#D9D9D9"/>
<rect x="56.8959" y="592.135" width="4.89529" height="6.23956" transform="rotate(-90 56.8959 592.135)" fill="#D9D9D9"/>
<rect x="68.0308" y="592.241" width="4.89529" height="6.23956" transform="rotate(-90 68.0308 592.241)" fill="#D9D9D9"/>
</g>
</g>
<defs>
<filter id="filter0_d_1_2" x="-33.7622" y="-16.5332" width="1765.76" height="1135.58" filterUnits="userSpaceOnUse" color-interpolation-filters="sRGB">
<feFlood flood-opacity="0" result="BackgroundImageFix"/>
<feColorMatrix in="SourceAlpha" type="matrix" values="0 0 0 0 0 0 0 0 0 0 0 0 0 0 0 0 0 0 127 0" result="hardAlpha"/>
<feOffset dy="5.5"/>
<feGaussianBlur stdDeviation="2"/>
<feComposite in2="hardAlpha" operator="out"/>
<feColorMatrix type="matrix" values="0 0 0 0 0 0 0 0 0 0 0 0 0 0 0 0 0 0 0.35 0"/>
<feBlend mode="normal" in2="BackgroundImageFix" result="effect1_dropShadow_1_2"/>
<feBlend mode="normal" in="SourceGraphic" in2="effect1_dropShadow_1_2" result="shape"/>
</filter>
<filter id="filter1_d_1_2" x="142" y="118" width="1514.86" height="869.314" filterUnits="userSpaceOnUse" color-interpolation-filters="sRGB">
<feFlood flood-opacity="0" result="BackgroundImageFix"/>
<feColorMatrix in="SourceAlpha" type="matrix" values="0 0 0 0 0 0 0 0 0 0 0 0 0 0 0 0 0 0 127 0" result="hardAlpha"/>
<feOffset dy="5.5"/>
<feGaussianBlur stdDeviation="2"/>
<feComposite in2="hardAlpha" operator="out"/>
<feColorMatrix type="matrix" values="0 0 0 0 0 0 0 0 0 0 0 0 0 0 0 0 0 0 0.35 0"/>
<feBlend mode="normal" in2="BackgroundImageFix" result="effect1_dropShadow_1_2"/>
<feBlend mode="normal" in="SourceGraphic" in2="effect1_dropShadow_1_2" result="shape"/>
</filter>
<filter id="filter2_d_1_2" x="3.38452" y="4.0058" width="1710.94" height="1094.5" filterUnits="userSpaceOnUse" color-interpolation-filters="sRGB">
<feFlood flood-opacity="0" result="BackgroundImageFix"/>
<feColorMatrix in="SourceAlpha" type="matrix" values="0 0 0 0 0 0 0 0 0 0 0 0 0 0 0 0 0 0 127 0" result="hardAlpha"/>
<feOffset dy="5.5"/>
<feGaussianBlur stdDeviation="2"/>
<feComposite in2="hardAlpha" operator="out"/>
<feColorMatrix type="matrix" values="0 0 0 0 0 0 0 0 0 0 0 0 0 0 0 0 0 0 0.35 0"/>
<feBlend mode="normal" in2="BackgroundImageFix" result="effect1_dropShadow_1_2"/>
<feBlend mode="normal" in="SourceGraphic" in2="effect1_dropShadow_1_2" result="shape"/>
</filter>
<clipPath id="clip0_1_2">
<rect width="1728" height="1117" fill="white"/>
</clipPath>
</defs>
</svg>
