<svg width="1708" height="1095" viewBox="0 0 1708 1095" fill="none" xmlns="http://www.w3.org/2000/svg">
<g filter="url(#filter0_d_7_155)">
<rect x="588.971" y="653.9" width="5.9" height="5.90454" transform="rotate(-90 588.971 653.9)" fill="#D9D9D9"/>
<rect x="606.035" y="670.879" width="5.9" height="5.90454" transform="rotate(-90 606.035 670.879)" fill="#D9D9D9"/>
<rect x="572" y="670.879" width="5.9" height="5.90454" transform="rotate(-90 572 670.879)" fill="#D9D9D9"/>
<rect x="588.971" y="687.84" width="5.9" height="5.90454" transform="rotate(-90 588.971 687.84)" fill="#D9D9D9"/>
<rect x="600.987" y="681.94" width="5.00181" height="5.0481" transform="rotate(-90 600.987 681.94)" fill="#D9D9D9"/>
<rect x="577.905" y="681.94" width="5.00181" height="5.0481" transform="rotate(-90 577.905 681.94)" fill="#D9D9D9"/>
<rect x="577.905" y="658.902" width="5.00181" height="5.0481" transform="rotate(-90 577.905 658.902)" fill="#D9D9D9"/>
<rect x="600.987" y="658.902" width="5.00181" height="5.0481" transform="rotate(-90 600.987 658.902)" fill="#D9D9D9"/>
<rect x="816.971" y="262.066" width="5.9" height="5.90454" transform="rotate(-90 816.971 262.066)" fill="#D9D9D9"/>
<rect x="834.035" y="279.045" width="5.9" height="5.90454" transform="rotate(-90 834.035 279.045)" fill="#D9D9D9"/>
<rect x="800" y="279.045" width="5.9" height="5.90454" transform="rotate(-90 800 279.045)" fill="#D9D9D9"/>
<rect x="816.971" y="296.005" width="5.9" height="5.90454" transform="rotate(-90 816.971 296.005)" fill="#D9D9D9"/>
<rect x="828.987" y="290.105" width="5.00181" height="5.0481" transform="rotate(-90 828.987 290.105)" fill="#D9D9D9"/>
<rect x="805.905" y="290.105" width="5.00181" height="5.0481" transform="rotate(-90 805.905 290.105)" fill="#D9D9D9"/>
<rect x="805.905" y="267.068" width="5.00181" height="5.0481" transform="rotate(-90 805.905 267.068)" fill="#D9D9D9"/>
<rect x="828.987" y="267.068" width="5.00181" height="5.0481" transform="rotate(-90 828.987 267.068)" fill="#D9D9D9"/>
<rect x="1680.36" y="253.665" width="5.9" height="5.90454" transform="rotate(-90 1680.36 253.665)" fill="#D9D9D9"/>
<rect x="1697.42" y="270.644" width="5.9" height="5.90454" transform="rotate(-90 1697.42 270.644)" fill="#D9D9D9"/>
<rect x="1663.38" y="270.644" width="5.9" height="5.90454" transform="rotate(-90 1663.38 270.644)" fill="#D9D9D9"/>
<rect x="1680.36" y="287.604" width="5.9" height="5.90454" transform="rotate(-90 1680.36 287.604)" fill="#D9D9D9"/>
<rect x="1692.37" y="281.704" width="5.00181" height="5.0481" transform="rotate(-90 1692.37 281.704)" fill="#D9D9D9"/>
<rect x="1669.29" y="281.704" width="5.00181" height="5.0481" transform="rotate(-90 1669.29 281.704)" fill="#D9D9D9"/>
<rect x="1669.29" y="258.667" width="5.00181" height="5.0481" transform="rotate(-90 1669.29 258.667)" fill="#D9D9D9"/>
<rect x="1692.37" y="258.667" width="5.00181" height="5.0481" transform="rotate(-90 1692.37 258.667)" fill="#D9D9D9"/>
<rect x="699.296" y="1051.07" width="5.9" height="5.90454" transform="rotate(-90 699.296 1051.07)" fill="#D9D9D9"/>
<rect x="716.36" y="1068.05" width="5.9" height="5.90454" transform="rotate(-90 716.36 1068.05)" fill="#D9D9D9"/>
<rect x="682.324" y="1068.05" width="5.9" height="5.90454" transform="rotate(-90 682.324 1068.05)" fill="#D9D9D9"/>
<rect x="699.296" y="1085.01" width="5.9" height="5.90454" transform="rotate(-90 699.296 1085.01)" fill="#D9D9D9"/>
<rect x="711.312" y="1079.11" width="5.00181" height="5.0481" transform="rotate(-90 711.312 1079.11)" fill="#D9D9D9"/>
<rect x="688.229" y="1079.11" width="5.00181" height="5.0481" transform="rotate(-90 688.229 1079.11)" fill="#D9D9D9"/>
<rect x="688.229" y="1056.07" width="5.00181" height="5.0481" transform="rotate(-90 688.229 1056.07)" fill="#D9D9D9"/>
<rect x="711.312" y="1056.07" width="5.00181" height="5.0481" transform="rotate(-90 711.312 1056.07)" fill="#D9D9D9"/>
<rect x="1150.36" y="51.9" width="5.9" height="5.90454" transform="rotate(-90 1150.36 51.9)" fill="#D9D9D9"/>
<rect x="1167.43" y="68.8793" width="5.9" height="5.90454" transform="rotate(-90 1167.43 68.8793)" fill="#D9D9D9"/>
<rect x="1133.39" y="68.8793" width="5.9" height="5.90454" transform="rotate(-90 1133.39 68.8793)" fill="#D9D9D9"/>
<rect x="1150.36" y="85.8395" width="5.9" height="5.90454" transform="rotate(-90 1150.36 85.8395)" fill="#D9D9D9"/>
<rect x="1162.38" y="79.9395" width="5.00181" height="5.0481" transform="rotate(-90 1162.38 79.9395)" fill="#D9D9D9"/>
<rect x="1139.29" y="79.9395" width="5.00181" height="5.0481" transform="rotate(-90 1139.29 79.9395)" fill="#D9D9D9"/>
<rect x="1139.29" y="56.9018" width="5.00181" height="5.0481" transform="rotate(-90 1139.29 56.9018)" fill="#D9D9D9"/>
<rect x="1162.38" y="56.9018" width="5.00181" height="5.0481" transform="rotate(-90 1162.38 56.9018)" fill="#D9D9D9"/>
<rect x="147.296" y="432.639" width="5.9" height="5.90454" transform="rotate(-90 147.296 432.639)" fill="#D9D9D9"/>
<rect x="164.36" y="449.618" width="5.9" height="5.90454" transform="rotate(-90 164.36 449.618)" fill="#D9D9D9"/>
<rect x="130.324" y="449.618" width="5.9" height="5.90454" transform="rotate(-90 130.324 449.618)" fill="#D9D9D9"/>
<rect x="147.296" y="466.578" width="5.9" height="5.90454" transform="rotate(-90 147.296 466.578)" fill="#D9D9D9"/>
<rect x="159.312" y="460.678" width="5.00181" height="5.0481" transform="rotate(-90 159.312 460.678)" fill="#D9D9D9"/>
<rect x="136.229" y="460.678" width="5.00181" height="5.0481" transform="rotate(-90 136.229 460.678)" fill="#D9D9D9"/>
<rect x="136.229" y="437.641" width="5.00181" height="5.0481" transform="rotate(-90 136.229 437.641)" fill="#D9D9D9"/>
<rect x="159.312" y="437.641" width="5.00181" height="5.0481" transform="rotate(-90 159.312 437.641)" fill="#D9D9D9"/>
<rect x="1136.3" y="777.906" width="5.9" height="5.90454" transform="rotate(-90 1136.3 777.906)" fill="#D9D9D9"/>
<rect x="1153.36" y="794.885" width="5.9" height="5.90454" transform="rotate(-90 1153.36 794.885)" fill="#D9D9D9"/>
<rect x="1119.32" y="794.885" width="5.9" height="5.90454" transform="rotate(-90 1119.32 794.885)" fill="#D9D9D9"/>
<rect x="1136.3" y="811.845" width="5.9" height="5.90454" transform="rotate(-90 1136.3 811.845)" fill="#D9D9D9"/>
<rect x="1148.31" y="805.945" width="5.00181" height="5.0481" transform="rotate(-90 1148.31 805.945)" fill="#D9D9D9"/>
<rect x="1125.23" y="805.945" width="5.00181" height="5.0481" transform="rotate(-90 1125.23 805.945)" fill="#D9D9D9"/>
<rect x="1125.23" y="782.908" width="5.00181" height="5.0481" transform="rotate(-90 1125.23 782.908)" fill="#D9D9D9"/>
<rect x="1148.31" y="782.908" width="5.00181" height="5.0481" transform="rotate(-90 1148.31 782.908)" fill="#D9D9D9"/>
<rect x="35.356" y="1044.67" width="5.9" height="5.90454" transform="rotate(-90 35.356 1044.67)" fill="#D9D9D9"/>
<rect x="52.4199" y="1061.64" width="5.9" height="5.90454" transform="rotate(-90 52.4199 1061.64)" fill="#D9D9D9"/>
<rect x="18.3845" y="1061.64" width="5.9" height="5.90454" transform="rotate(-90 18.3845 1061.64)" fill="#D9D9D9"/>
<rect x="35.356" y="1078.6" width="5.9" height="5.90454" transform="rotate(-90 35.356 1078.6)" fill="#D9D9D9"/>
<rect x="47.3718" y="1072.7" width="5.00181" height="5.0481" transform="rotate(-90 47.3718 1072.7)" fill="#D9D9D9"/>
<rect x="24.2891" y="1072.7" width="5.00181" height="5.0481" transform="rotate(-90 24.2891 1072.7)" fill="#D9D9D9"/>
<rect x="24.2891" y="1049.67" width="5.00181" height="5.0481" transform="rotate(-90 24.2891 1049.67)" fill="#D9D9D9"/>
<rect x="47.3718" y="1049.67" width="5.00181" height="5.0481" transform="rotate(-90 47.3718 1049.67)" fill="#D9D9D9"/>
<rect x="1283.03" y="1031" width="5.77518" height="11.0253" fill="#D9D9D9"/>
<rect x="1283.03" y="1059.93" width="5.77518" height="11.0253" fill="#D9D9D9"/>
<rect width="5.77518" height="11.9004" transform="matrix(0 -1 -1 0 1277.9 1053.87)" fill="#D9D9D9"/>
<rect width="5.77518" height="11.9004" transform="matrix(0 -1 -1 0 1306.48 1053.87)" fill="#D9D9D9"/>
<rect width="5.77518" height="5.9502" transform="matrix(0 -1 -1 0 1288.81 1053.87)" fill="#D9D9D9"/>
</g>
<defs>
<filter id="filter0_d_7_155" x="-3.61548" y="0.00579834" width="1710.94" height="1094.5" filterUnits="userSpaceOnUse" color-interpolation-filters="sRGB">
<feFlood flood-opacity="0" result="BackgroundImageFix"/>
<feColorMatrix in="SourceAlpha" type="matrix" values="0 0 0 0 0 0 0 0 0 0 0 0 0 0 0 0 0 0 127 0" result="hardAlpha"/>
<feOffset dy="5.5"/>
<feGaussianBlur stdDeviation="2"/>
<feComposite in2="hardAlpha" operator="out"/>
<feColorMatrix type="matrix" values="0 0 0 0 0 0 0 0 0 0 0 0 0 0 0 0 0 0 0.35 0"/>
<feBlend mode="normal" in2="BackgroundImageFix" result="effect1_dropShadow_7_155"/>
<feBlend mode="normal" in="SourceGraphic" in2="effect1_dropShadow_7_155" result="shape"/>
</filter>
</defs>
</svg>
