<svg width="1534" height="1057" viewBox="0 0 1534 1057" fill="none" xmlns="http://www.w3.org/2000/svg">
<g filter="url(#filter0_d_7_277)">
<rect x="486.518" y="413.221" width="4.89529" height="6.23956" fill="#D9D9D9"/>
<rect x="486.518" y="424.462" width="4.89529" height="6.23956" fill="#D9D9D9"/>
<rect x="480.279" y="424.356" width="4.89529" height="6.23956" transform="rotate(-90 480.279 424.356)" fill="#D9D9D9"/>
<rect x="491.414" y="424.462" width="4.89529" height="6.23956" transform="rotate(-90 491.414 424.462)" fill="#D9D9D9"/>
<rect x="80.4745" y="647.397" width="4.89529" height="6.23956" fill="#D9D9D9"/>
<rect x="80.4745" y="658.638" width="4.89529" height="6.23956" fill="#D9D9D9"/>
<rect x="74.235" y="658.532" width="4.89529" height="6.23956" transform="rotate(-90 74.235 658.532)" fill="#D9D9D9"/>
<rect x="85.3698" y="658.638" width="4.89529" height="6.23956" transform="rotate(-90 85.3698 658.638)" fill="#D9D9D9"/>
<rect x="633.93" y="757.3" width="4.89529" height="6.23956" fill="#D9D9D9"/>
<rect x="633.93" y="768.541" width="4.89529" height="6.23956" fill="#D9D9D9"/>
<rect x="627.691" y="768.435" width="4.89529" height="6.23956" transform="rotate(-90 627.691 768.435)" fill="#D9D9D9"/>
<rect x="638.826" y="768.541" width="4.89529" height="6.23956" transform="rotate(-90 638.826 768.541)" fill="#D9D9D9"/>
<rect x="1518.55" y="156.312" width="4.89529" height="6.23956" fill="#D9D9D9"/>
<rect x="1518.55" y="167.553" width="4.89529" height="6.23956" fill="#D9D9D9"/>
<rect x="1512.31" y="167.447" width="4.89529" height="6.23956" transform="rotate(-90 1512.31 167.447)" fill="#D9D9D9"/>
<rect x="1523.44" y="167.553" width="4.89529" height="6.23956" transform="rotate(-90 1523.44 167.553)" fill="#D9D9D9"/>
<rect x="945.868" y="656.352" width="4.89529" height="6.23956" fill="#D9D9D9"/>
<rect x="945.868" y="667.593" width="4.89529" height="6.23956" fill="#D9D9D9"/>
<rect x="939.628" y="667.487" width="4.89529" height="6.23956" transform="rotate(-90 939.628 667.487)" fill="#D9D9D9"/>
<rect x="950.763" y="667.593" width="4.89529" height="6.23956" transform="rotate(-90 950.763 667.593)" fill="#D9D9D9"/>
<rect x="177.24" y="327.159" width="4.89529" height="6.23956" fill="#D9D9D9"/>
<rect x="177.24" y="338.4" width="4.89529" height="6.23956" fill="#D9D9D9"/>
<rect x="171" y="338.293" width="4.89529" height="6.23956" transform="rotate(-90 171 338.293)" fill="#D9D9D9"/>
<rect x="182.135" y="338.4" width="4.89529" height="6.23956" transform="rotate(-90 182.135 338.4)" fill="#D9D9D9"/>
<rect x="384.985" y="802.782" width="4.89529" height="6.23956" fill="#D9D9D9"/>
<rect x="384.985" y="814.023" width="4.89529" height="6.23956" fill="#D9D9D9"/>
<rect x="378.746" y="813.917" width="4.89529" height="6.23956" transform="rotate(-90 378.746 813.917)" fill="#D9D9D9"/>
<rect x="389.881" y="814.023" width="4.89529" height="6.23956" transform="rotate(-90 389.881 814.023)" fill="#D9D9D9"/>
<rect x="11.2095" y="938.853" width="4.89529" height="6.23956" fill="#D9D9D9"/>
<rect x="11.2095" y="950.094" width="4.89529" height="6.23956" fill="#D9D9D9"/>
<rect x="4.96991" y="949.988" width="4.89529" height="6.23956" transform="rotate(-90 4.96991 949.988)" fill="#D9D9D9"/>
<rect x="16.1048" y="950.094" width="4.89529" height="6.23956" transform="rotate(-90 16.1048 950.094)" fill="#D9D9D9"/>
<rect x="928.493" y="359" width="4.89529" height="6.23956" fill="#D9D9D9"/>
<rect x="928.493" y="370.241" width="4.89529" height="6.23956" fill="#D9D9D9"/>
<rect x="922.254" y="370.135" width="4.89529" height="6.23956" transform="rotate(-90 922.254 370.135)" fill="#D9D9D9"/>
<rect x="933.389" y="370.241" width="4.89529" height="6.23956" transform="rotate(-90 933.389 370.241)" fill="#D9D9D9"/>
<rect x="1181.24" y="341.519" width="4.89529" height="6.23956" fill="#D9D9D9"/>
<rect x="1181.24" y="352.76" width="4.89529" height="6.23956" fill="#D9D9D9"/>
<rect x="1175" y="352.654" width="4.89529" height="6.23956" transform="rotate(-90 1175 352.654)" fill="#D9D9D9"/>
<rect x="1186.13" y="352.76" width="4.89529" height="6.23956" transform="rotate(-90 1186.13 352.76)" fill="#D9D9D9"/>
<rect x="1288.52" y="728.239" width="4.89529" height="6.23956" fill="#D9D9D9"/>
<rect x="1288.52" y="739.48" width="4.89529" height="6.23956" fill="#D9D9D9"/>
<rect x="1282.28" y="739.374" width="4.89529" height="6.23956" transform="rotate(-90 1282.28 739.374)" fill="#D9D9D9"/>
<rect x="1293.42" y="739.48" width="4.89529" height="6.23956" transform="rotate(-90 1293.42 739.48)" fill="#D9D9D9"/>
<rect x="1342.41" y="73.9701" width="4.89529" height="6.23956" fill="#D9D9D9"/>
<rect x="1342.41" y="85.2112" width="4.89529" height="6.23956" fill="#D9D9D9"/>
<rect x="1336.17" y="85.1049" width="4.89529" height="6.23956" transform="rotate(-90 1336.17 85.1049)" fill="#D9D9D9"/>
<rect x="1347.31" y="85.2112" width="4.89529" height="6.23956" transform="rotate(-90 1347.31 85.2112)" fill="#D9D9D9"/>
<rect x="832.087" y="1029.1" width="4.89529" height="6.23956" fill="#D9D9D9"/>
<rect x="832.087" y="1040.34" width="4.89529" height="6.23956" fill="#D9D9D9"/>
<rect x="825.847" y="1040.23" width="4.89529" height="6.23956" transform="rotate(-90 825.847 1040.23)" fill="#D9D9D9"/>
<rect x="836.982" y="1040.34" width="4.89529" height="6.23956" transform="rotate(-90 836.982 1040.34)" fill="#D9D9D9"/>
<rect x="832.135" y="1029" width="4.89529" height="6.23956" fill="#D9D9D9"/>
<rect x="832.135" y="1040.24" width="4.89529" height="6.23956" fill="#D9D9D9"/>
<rect x="825.896" y="1040.13" width="4.89529" height="6.23956" transform="rotate(-90 825.896 1040.13)" fill="#D9D9D9"/>
<rect x="837.031" y="1040.24" width="4.89529" height="6.23956" transform="rotate(-90 837.031 1040.24)" fill="#D9D9D9"/>
<rect x="325.24" width="4.89529" height="6.23956" fill="#D9D9D9"/>
<rect x="325.24" y="11.2411" width="4.89529" height="6.23956" fill="#D9D9D9"/>
<rect x="319" y="11.1349" width="4.89529" height="6.23956" transform="rotate(-90 319 11.1349)" fill="#D9D9D9"/>
<rect x="330.135" y="11.2411" width="4.89529" height="6.23956" transform="rotate(-90 330.135 11.2411)" fill="#D9D9D9"/>
</g>
<defs>
<filter id="filter0_d_7_277" x="0.96991" y="0" width="1532.71" height="1056.08" filterUnits="userSpaceOnUse" color-interpolation-filters="sRGB">
<feFlood flood-opacity="0" result="BackgroundImageFix"/>
<feColorMatrix in="SourceAlpha" type="matrix" values="0 0 0 0 0 0 0 0 0 0 0 0 0 0 0 0 0 0 127 0" result="hardAlpha"/>
<feOffset dy="5.5"/>
<feGaussianBlur stdDeviation="2"/>
<feComposite in2="hardAlpha" operator="out"/>
<feColorMatrix type="matrix" values="0 0 0 0 0 0 0 0 0 0 0 0 0 0 0 0 0 0 0.35 0"/>
<feBlend mode="normal" in2="BackgroundImageFix" result="effect1_dropShadow_7_277"/>
<feBlend mode="normal" in="SourceGraphic" in2="effect1_dropShadow_7_277" result="shape"/>
</filter>
</defs>
</svg>
